<?xml version="1.0" encoding="utf-8"?>
<!-- Generator: Adobe Illustrator 17.0.0, SVG Export Plug-In . SVG Version: 6.00 Build 0)  -->
<!DOCTYPE svg PUBLIC "-//W3C//DTD SVG 1.1//EN" "http://www.w3.org/Graphics/SVG/1.1/DTD/svg11.dtd">
<svg version="1.1" id="Layer_1" xmlns="http://www.w3.org/2000/svg" xmlns:xlink="http://www.w3.org/1999/xlink" x="0px" y="0px"
	 width="595.28px" height="595.276px" viewBox="0 0 595.28 595.276" enable-background="new 0 0 595.28 595.276"
	 xml:space="preserve">
<g>
	<g>
		<radialGradient id="SVGID_1_" cx="280.7218" cy="489.5434" r="250.9927" gradientUnits="userSpaceOnUse">
			<stop  offset="0" style="stop-color:#0CA681"/>
			<stop  offset="0.5051" style="stop-color:#178475"/>
			<stop  offset="1" style="stop-color:#1D665D"/>
		</radialGradient>
		<path fill="url(#SVGID_1_)" d="M94.288,505.307c-3.316,1.216-7.45,1.831-12.306,1.831c-6.055,0-11.045-2.069-15.254-6.325
			c-4.215-4.26-6.265-9.31-6.265-15.442c0-6.074,1.864-11.266,5.539-15.429c3.684-4.171,8.308-6.196,14.138-6.196
			c5.04,0,10.391,0.837,15.906,2.492l1.287,0.386l1.766-5.42l-1.309-0.425c-5.925-1.926-11.862-2.902-17.65-2.902
			c-7.597,0-13.925,2.689-18.805,7.992c-4.85,5.27-7.309,11.832-7.309,19.503c0,7.693,2.713,14.294,8.061,19.618
			c5.348,5.322,11.983,8.02,19.718,8.02c7.621,0,13.672-1.357,17.986-4.035l0.65-0.403V484.03h-6.154V505.307z"/>
		<radialGradient id="SVGID_2_" cx="280.7218" cy="489.5434" r="250.9927" gradientUnits="userSpaceOnUse">
			<stop  offset="0" style="stop-color:#0CA681"/>
			<stop  offset="0.5051" style="stop-color:#178475"/>
			<stop  offset="1" style="stop-color:#1D665D"/>
		</radialGradient>
		<path fill="url(#SVGID_2_)" d="M144.487,502.922c-0.732-0.823-2.394-2.91-4.937-6.2c-2.171-2.808-4.072-5.32-5.665-7.489
			c1.914-1.543,3.679-3.495,5.255-5.818c1.946-2.867,2.932-6.013,2.932-9.349c0-4.956-1.749-8.859-5.199-11.604
			c-3.352-2.667-7.647-4.02-12.764-4.02c-3.045,0-6.871,0.169-11.37,0.499l-1.276,0.095v53.122h6.154v-20.742
			c3.214,0.204,6.75,0.314,10.542,0.325c6.325,8.672,10.207,13.73,11.862,15.457c1.745,1.82,3.615,3.196,5.558,4.089
			c1.965,0.904,4.512,1.387,7.571,1.437l1.356,0.02l0.152-4.884l-1.255-0.147C150.061,507.325,147.136,505.749,144.487,502.922z
			 M117.615,464.442c2.291-0.134,4.327-0.201,6.066-0.201c3.688,0,6.661,0.847,8.839,2.514c2.095,1.61,3.112,3.942,3.112,7.132
			c0,3.305-1.049,6.13-3.211,8.635c-2.078,2.412-3.97,3.634-5.621,3.634c-2.852,0-5.936-0.091-9.186-0.273V464.442z"/>
		<radialGradient id="SVGID_3_" cx="280.7218" cy="489.5434" r="250.9927" gradientUnits="userSpaceOnUse">
			<stop  offset="0" style="stop-color:#0CA681"/>
			<stop  offset="0.5051" style="stop-color:#178475"/>
			<stop  offset="1" style="stop-color:#1D665D"/>
		</radialGradient>
		<polygon fill="url(#SVGID_3_)" points="168.062,486.002 186.278,486.002 186.278,480.344 168.062,480.344 168.062,464.455 
			188.193,464.455 188.193,458.726 161.908,458.726 161.908,512.159 188.973,512.159 188.973,506.43 168.062,506.43 		"/>
		<radialGradient id="SVGID_4_" cx="280.7218" cy="489.5434" r="250.9927" gradientUnits="userSpaceOnUse">
			<stop  offset="0" style="stop-color:#0CA681"/>
			<stop  offset="0.5051" style="stop-color:#178475"/>
			<stop  offset="1" style="stop-color:#1D665D"/>
		</radialGradient>
		<polygon fill="url(#SVGID_4_)" points="205.982,486.002 224.198,486.002 224.198,480.344 205.982,480.344 205.982,464.455 
			226.112,464.455 226.112,458.726 199.828,458.726 199.828,512.159 226.892,512.159 226.892,506.43 205.982,506.43 		"/>
		<radialGradient id="SVGID_5_" cx="280.7218" cy="489.5434" r="250.9927" gradientUnits="userSpaceOnUse">
			<stop  offset="0" style="stop-color:#0CA681"/>
			<stop  offset="0.5051" style="stop-color:#178475"/>
			<stop  offset="1" style="stop-color:#1D665D"/>
		</radialGradient>
		<path fill="url(#SVGID_5_)" d="M277.656,496.819c0,1.244,0.019,2.436,0.052,3.571c-0.774-0.945-1.642-1.989-2.598-3.125
			l-33.797-38.963h-3.563v53.857h6.154v-37.983l-0.084-3.558c0.577,0.674,1.242,1.437,1.994,2.295l34.432,39.671h3.563v-53.857
			h-6.154V496.819z"/>
		<radialGradient id="SVGID_6_" cx="280.7218" cy="489.5434" r="250.9927" gradientUnits="userSpaceOnUse">
			<stop  offset="0" style="stop-color:#0CA681"/>
			<stop  offset="0.5051" style="stop-color:#178475"/>
			<stop  offset="1" style="stop-color:#1D665D"/>
		</radialGradient>
		<path fill="url(#SVGID_6_)" d="M317.886,484.775c-2.23-1.562-4.458-3.092-6.689-4.587c-2.098-1.406-3.903-3.03-5.368-4.83
			c-1.367-1.677-2.03-3.422-2.03-5.333c0-2.696,0.93-6.28,8.973-6.28c3.199,0,6.475,0.702,9.739,2.089l1.255,0.533l2.284-5.244
			l-1.213-0.566c-3.807-1.779-7.974-2.681-12.385-2.681c-4.525,0-8.2,1.09-10.917,3.238c-2.817,2.226-4.245,5.272-4.245,9.052
			c0,2.828,0.871,5.502,2.589,7.951c1.642,2.336,3.656,4.377,5.99,6.065c2.228,1.612,4.457,3.188,6.687,4.729
			c2.104,1.456,3.916,3.108,5.387,4.913c1.367,1.675,2.03,3.372,2.03,5.19c0,2.637-0.886,4.585-2.709,5.953
			c-1.922,1.439-4.793,2.169-8.532,2.169c-3.777,0-7.29-1.045-10.447-3.107l-1.14-0.746l-3.192,4.789l1.073,0.776
			c3.814,2.759,8.462,4.159,13.812,4.159c5.363,0,9.663-1.203,12.779-3.578c3.227-2.46,4.865-6.107,4.865-10.841
			c0-2.832-0.875-5.487-2.598-7.89C322.244,488.414,320.225,486.42,317.886,484.775z"/>
		<radialGradient id="SVGID_7_" cx="280.7218" cy="489.5434" r="250.9927" gradientUnits="userSpaceOnUse">
			<stop  offset="0" style="stop-color:#0CA681"/>
			<stop  offset="0.5051" style="stop-color:#178475"/>
			<stop  offset="1" style="stop-color:#1D665D"/>
		</radialGradient>
		<path fill="url(#SVGID_7_)" d="M352.118,458.372l-22.485,53.787h6.598l7.299-17.579h20.849l7.299,17.579h6.815l-22.559-53.787
			H352.118z M345.875,488.921l7.002-16.931c0.321-0.741,0.652-1.575,0.993-2.503c0.312,0.709,0.691,1.551,1.153,2.553l7.008,16.881
			H345.875z"/>
		<radialGradient id="SVGID_8_" cx="280.7218" cy="489.5434" r="250.9927" gradientUnits="userSpaceOnUse">
			<stop  offset="0" style="stop-color:#0CA681"/>
			<stop  offset="0.5051" style="stop-color:#178475"/>
			<stop  offset="1" style="stop-color:#1D665D"/>
		</radialGradient>
		<rect x="411.055" y="458.726" fill="url(#SVGID_8_)" width="6.154" height="53.432"/>
		<radialGradient id="SVGID_9_" cx="280.7218" cy="489.5434" r="250.9927" gradientUnits="userSpaceOnUse">
			<stop  offset="0" style="stop-color:#0CA681"/>
			<stop  offset="0.5051" style="stop-color:#178475"/>
			<stop  offset="1" style="stop-color:#1D665D"/>
		</radialGradient>
		<path fill="url(#SVGID_9_)" d="M473.077,496.819c0,1.244,0.019,2.436,0.052,3.571c-0.774-0.947-1.642-1.989-2.598-3.125
			l-33.797-38.963h-3.563v53.857h6.154v-37.983l-0.084-3.558c0.578,0.674,1.242,1.437,1.994,2.295l34.432,39.671h3.563v-53.857
			h-6.154V496.819z"/>
		<radialGradient id="SVGID_10_" cx="280.7218" cy="489.5434" r="250.9927" gradientUnits="userSpaceOnUse">
			<stop  offset="0" style="stop-color:#0CA681"/>
			<stop  offset="0.5051" style="stop-color:#178475"/>
			<stop  offset="1" style="stop-color:#1D665D"/>
		</radialGradient>
		<path fill="url(#SVGID_10_)" d="M535.1,458.726v38.092c0,1.244,0.019,2.436,0.052,3.571c-0.774-0.945-1.641-1.989-2.598-3.125
			l-33.797-38.963h-3.563v53.857h6.154v-37.983l-0.084-3.558c0.578,0.674,1.242,1.437,1.994,2.295l34.432,39.671h3.563v-53.857
			H535.1z"/>
	</g>
	<g>
		<g>
			<g>
				
					<radialGradient id="SVGID_11_" cx="302.2691" cy="58.9844" r="151.3898" gradientTransform="matrix(0.9971 0.0755 -0.0755 0.9971 6.083 119.3571)" gradientUnits="userSpaceOnUse">
					<stop  offset="0" style="stop-color:#0CA681"/>
					<stop  offset="0.5051" style="stop-color:#178475"/>
					<stop  offset="1" style="stop-color:#1D665D"/>
				</radialGradient>
				<path fill="url(#SVGID_11_)" d="M185.927,223.652c-18.938,16.741-27.787,35.264-37.011,58.517
					c-1.044,2.632,0.128,8.305,1.31,6.421c45.371-72.28,113.45-20.984,8.852-0.165c-0.852,0.17-1.75,0.205-2.588,0.5
					c-1.018,0.359-6.084,3.261-3.008,3.097c109.431-5.816,82.878-60.245,30.129-49.617c18.444-24.355,55.084-30.658,84.241-29.199
					c6.615,0.331-5.208-6.078-7.666-6.797C241.893,201.061,210.329,201.108,185.927,223.652
					C184.8,224.647,188.133,221.613,185.927,223.652z"/>
			</g>
			<g>
				
					<radialGradient id="SVGID_12_" cx="302.2691" cy="58.9844" r="151.3786" gradientTransform="matrix(0.9971 0.0755 -0.0755 0.9971 6.083 119.3571)" gradientUnits="userSpaceOnUse">
					<stop  offset="0" style="stop-color:#0CA681"/>
					<stop  offset="0.5051" style="stop-color:#178475"/>
					<stop  offset="1" style="stop-color:#1D665D"/>
				</radialGradient>
				<path fill="url(#SVGID_12_)" d="M198.556,146.911c-25.269,0.651-43.953,9.152-65.966,21.036
					c-2.492,1.345-5.24,6.444-3.124,5.761c81.217-26.206,100.396,56.849,6.887,5.564c-0.762-0.418-1.472-0.968-2.304-1.281
					c-1.01-0.38-6.757-1.413-4.295,0.439c87.567,65.885,102.213,7.123,54.974-18.642c29.784-6.802,61.903,11.922,83.301,31.781
					c4.854,4.505-0.083-8.004-1.504-10.134C255.949,165.58,231.739,145.327,198.556,146.911
					C197.053,146.95,201.556,146.768,198.556,146.911z"/>
			</g>
			<g>
				
					<radialGradient id="SVGID_13_" cx="302.2691" cy="58.9844" r="151.3786" gradientTransform="matrix(0.9971 0.0755 -0.0755 0.9971 6.083 119.3571)" gradientUnits="userSpaceOnUse">
					<stop  offset="0" style="stop-color:#0CA681"/>
					<stop  offset="0.5051" style="stop-color:#178475"/>
					<stop  offset="1" style="stop-color:#1D665D"/>
				</radialGradient>
				<path fill="url(#SVGID_13_)" d="M257.557,96.242c-19.775-15.744-39.553-21.241-64.055-26.287
					c-2.773-0.571-8.156,1.568-6.096,2.405c79.061,32.13,40.366,108.083,1.7,8.689c-0.315-0.81-0.506-1.688-0.942-2.462
					c-0.53-0.94-4.268-5.426-3.573-2.425c24.73,106.758,73.721,71.157,54.095,21.056c27.188,13.935,39.757,48.924,43.384,77.89
					c0.823,6.571,5.081-6.184,5.362-8.73C289.523,147.435,283.996,116.359,257.557,96.242
					C256.381,95.306,259.948,98.061,257.557,96.242z"/>
			</g>
			<g>
				
					<radialGradient id="SVGID_14_" cx="302.2691" cy="58.9844" r="151.3786" gradientTransform="matrix(0.9971 0.0755 -0.0755 0.9971 6.083 119.3571)" gradientUnits="userSpaceOnUse">
					<stop  offset="0" style="stop-color:#0CA681"/>
					<stop  offset="0.5051" style="stop-color:#178475"/>
					<stop  offset="1" style="stop-color:#1D665D"/>
				</radialGradient>
				<path fill="url(#SVGID_14_)" d="M335.325,95.353c-5.029-24.772-16.646-41.696-32.172-61.311
					c-1.757-2.22-7.256-4.041-6.216-2.076c39.911,75.432-38.552,108.743-4.283,7.749c0.279-0.823,0.698-1.618,0.861-2.491
					c0.199-1.061,0.218-6.9-1.178-4.154c-49.678,97.678,10.735,101.897,27.905,50.901c11.87,28.151-0.992,63.033-16.833,87.554
					c-3.594,5.563,7.868-1.471,9.719-3.241C326.906,155.117,342.647,127.758,335.325,95.353
					C335.026,93.88,335.987,98.283,335.325,95.353z"/>
			</g>
			<g>
				
					<radialGradient id="SVGID_15_" cx="302.2691" cy="58.9844" r="151.3786" gradientTransform="matrix(0.9971 0.0755 -0.0755 0.9971 6.083 119.3571)" gradientUnits="userSpaceOnUse">
					<stop  offset="0" style="stop-color:#0CA681"/>
					<stop  offset="0.5051" style="stop-color:#178475"/>
					<stop  offset="1" style="stop-color:#1D665D"/>
				</radialGradient>
				<path fill="url(#SVGID_15_)" d="M395.469,144.66c12.07-22.209,14.05-42.641,14.765-67.646c0.081-2.83-2.961-7.76-3.428-5.586
					c-17.913,83.439-99.431,58.521-8.262,3.183c0.743-0.451,1.574-0.791,2.261-1.355c0.834-0.685,4.602-5.145,1.768-3.939
					c-100.842,42.893-57.275,84.958-11.342,56.93c-9.002,29.195-41.277,47.649-69.174,56.251c-6.329,1.951,6.973,3.93,9.529,3.765
					C350.605,185.03,380.249,174.19,395.469,144.66C396.187,143.339,394.093,147.33,395.469,144.66z"/>
			</g>
			<g>
				
					<radialGradient id="SVGID_16_" cx="302.2691" cy="58.9844" r="151.3786" gradientTransform="matrix(0.9971 0.0755 -0.0755 0.9971 6.083 119.3571)" gradientUnits="userSpaceOnUse">
					<stop  offset="0" style="stop-color:#0CA681"/>
					<stop  offset="0.5051" style="stop-color:#178475"/>
					<stop  offset="1" style="stop-color:#1D665D"/>
				</radialGradient>
				<path fill="url(#SVGID_16_)" d="M409.849,221.092c23.522-9.254,38.172-23.633,54.793-42.329c1.881-2.116,2.72-7.848,0.965-6.482
					c-67.356,52.404-113.785-19.084-8.375-2.873c0.859,0.132,1.715,0.406,2.603,0.415c1.079,0.011,6.833-0.983,3.886-1.882
					c-104.821-31.962-98.485,28.266-45.282,36.32c-25.662,16.578-62.248,9.969-89.147-1.373c-6.102-2.573,2.815,7.493,4.879,9.009
					C349.532,223.179,379.208,233.93,409.849,221.092C411.248,220.541,407.079,222.253,409.849,221.092z"/>
			</g>
			<g>
				
					<radialGradient id="SVGID_17_" cx="302.2691" cy="58.9844" r="151.3786" gradientTransform="matrix(0.9971 0.0755 -0.0755 0.9971 6.083 119.3571)" gradientUnits="userSpaceOnUse">
					<stop  offset="0" style="stop-color:#0CA681"/>
					<stop  offset="0.5051" style="stop-color:#178475"/>
					<stop  offset="1" style="stop-color:#1D665D"/>
				</radialGradient>
				<path fill="url(#SVGID_17_)" d="M371.735,288.885c23.967,8.03,44.433,6.432,69.183,2.794c2.801-0.412,7.128-4.263,4.906-4.345
					c-85.282-3.152-74.898-87.758-4.569-7.584c0.573,0.653,1.052,1.413,1.727,1.991c0.82,0.702,5.866,3.639,4.187,1.057
					c-59.752-91.862-93.613-41.652-58.035-1.284c-30.314-3.795-54.092-32.375-67.408-58.355c-3.021-5.894-2.66,7.549-2.053,10.038
					C324.188,251.712,340.011,279.024,371.735,288.885C373.161,289.362,368.867,287.993,371.735,288.885z"/>
			</g>
			<g>
				
					<radialGradient id="SVGID_18_" cx="302.2691" cy="58.9844" r="151.3786" gradientTransform="matrix(0.9971 0.0755 -0.0755 0.9971 6.083 119.3571)" gradientUnits="userSpaceOnUse">
					<stop  offset="0" style="stop-color:#0CA681"/>
					<stop  offset="0.5051" style="stop-color:#178475"/>
					<stop  offset="1" style="stop-color:#1D665D"/>
				</radialGradient>
				<path fill="url(#SVGID_18_)" d="M298.962,316.318c13.198,21.558,29.903,33.488,51.201,46.61
					c2.411,1.485,8.201,1.316,6.551-0.175c-63.304-57.233-0.965-115.37,1.375-8.747c0.019,0.869-0.102,1.759,0.043,2.636
					c0.176,1.065,2.155,6.558,2.528,3.5c13.274-108.778-44.938-92.08-43.632-38.287c-20.783-22.393-20.627-59.571-14.128-88.031
					c1.474-6.457-6.89,4.073-8.025,6.37C286.433,257.28,280.998,288.372,298.962,316.318
					C299.747,317.6,297.338,313.791,298.962,316.318z"/>
			</g>
			<g>
				<g>
					
						<radialGradient id="SVGID_19_" cx="302.2691" cy="58.9844" r="151.3786" gradientTransform="matrix(0.9971 0.0755 -0.0755 0.9971 6.083 119.3571)" gradientUnits="userSpaceOnUse">
						<stop  offset="0" style="stop-color:#0CA681"/>
						<stop  offset="0.5051" style="stop-color:#178475"/>
						<stop  offset="1" style="stop-color:#1D665D"/>
					</radialGradient>
					<path fill="url(#SVGID_19_)" d="M225.58,290.556c-3.747,24.998,1.381,44.875,9.262,68.617c0.892,2.687,5.436,6.279,5.131,4.077
						c-11.705-84.534,73.419-88.999,6.675-5.817c-0.544,0.678-1.209,1.282-1.661,2.047c-0.549,0.929-2.565,6.409-0.314,4.306
						c80.09-74.796,24.763-99.423-8.813-57.376c-1.526-30.513,22.491-58.893,45.763-76.517c5.28-3.998-7.896-1.308-10.242-0.279
						C253.932,237.276,229.783,257.601,225.58,290.556C225.358,292.042,225.96,287.576,225.58,290.556z"/>
				</g>
			</g>
		</g>
		<g>
			<g>
				<path fill="#C1B96B" d="M268.302,251.719c0,0-8.846,8.96-11.998,23.16c-3.152,14.2-0.131,6.648,9.114,3.381
					C270.721,276.386,272.564,265.936,268.302,251.719z"/>
			</g>
			<g>
				<path fill="#C1B96B" d="M243.618,221.362c0,0-12.536,1.177-24.078,10.029c-11.542,8.852-4.374,5.008,4.808,8.449
					C229.615,241.813,237.744,234.992,243.618,221.362z"/>
			</g>
			<g>
				<path fill="#C1B96B" d="M244.221,182.24c0,0-10.36-7.156-24.891-7.794c-14.532-0.638-6.57,1.025-1.747,9.563
					C220.349,188.906,230.96,188.905,244.221,182.24z"/>
			</g>
			<g>
				<path fill="#C1B96B" d="M269.83,152.659c0,0-3.336-12.141-14.058-21.971c-10.721-9.83-5.692-3.438-7.485,6.203
					C247.258,142.42,255.387,149.241,269.83,152.659z"/>
			</g>
			<g>
				<path fill="#C1B96B" d="M308.462,146.46c0,0,5.248-11.445,3.353-25.867c-1.895-14.422-2.15-6.292-9.721-0.06
					C297.753,124.108,299.595,134.558,308.462,146.46z"/>
			</g>
			<g>
				<path fill="#C1B96B" d="M342.041,166.543c0,0,11.377-5.394,19.196-17.659c7.819-12.266,2.397-6.202-7.408-6.295
					C348.205,142.536,342.899,151.726,342.041,166.543z"/>
			</g>
			<g>
				<path fill="#C1B96B" d="M354.854,203.512c0,0,12.182,3.181,26.056-1.189c13.874-4.37,5.823-3.21-1.629-9.584
					C375.007,189.083,365.036,192.713,354.854,203.512z"/>
			</g>
			<g>
				<path fill="#C1B96B" d="M340.907,240.068c0,0,7.288,10.268,20.724,15.838c13.437,5.57,6.524,1.284,4.913-8.389
					C365.62,241.969,355.648,238.34,340.907,240.068z"/>
			</g>
			<g>
				<path fill="#C1B96B" d="M306.725,259.106c0,0-1.017,12.55,5.696,25.454c6.713,12.904,4.173,5.177,9.155-3.268
					C324.434,276.448,319.128,267.258,306.725,259.106z"/>
			</g>
			<g>
				<path fill="#C1B96B" d="M268.302,251.719c0,0-8.846,8.96-11.998,23.16s-0.131,6.648,9.114,3.381
					C270.721,276.386,272.564,265.936,268.302,251.719z"/>
			</g>
		</g>
	</g>
	
		<text transform="matrix(1 0 0 1 107.4662 557.6016)" stroke="#231F20" stroke-width="0.9507" stroke-miterlimit="10" font-family="'JuliusSansOne-Regular'" font-size="26.6204" letter-spacing="1">INN &amp; TRAINING CENTER</text>
	<path fill="#C1B96B" d="M371.33,393.42c-18.793-3.441-37.392-0.414-55.88,4.965c-5.753,1.606-54.784,18.19-74.652,18.654
		c-39.31,0.918-60.123-24.743-60.125-24.846c0,0,13.676,26.792,43.276,32.212c18.793,3.441,37.391,0.414,55.88-4.965
		c5.752-1.606,54.784-18.19,74.652-18.654c39.31-0.918,60.123,24.743,60.125,24.846C414.606,425.632,400.93,398.84,371.33,393.42z"
		/>
</g>
</svg>
